<?xml version="1.0" encoding="UTF-8"?>
<svg id="Layer_1" data-name="Layer 1" xmlns="http://www.w3.org/2000/svg" viewBox="0 0 588.19 99.17">
  <defs>
    <style>
      .cls-1 {
        fill: #1a1818;
      }
    </style>
  </defs>
  <g>
    <path class="cls-1" d="M58.59,87.16l-12.02-48.26h-.2l-11.82,48.26h-15.79L0,16.26H15.59l11.22,48.26h.2l12.31-48.26h14.6l12.12,48.86h.2l11.62-48.86h15.29l-19.07,70.9h-15.49Z"/>
    <path class="cls-1" d="M99.2,27.87v-11.62h14.1v11.62h-14.1Zm14.1,7.94v51.34h-14.1V35.82h14.1Z"/>
    <path class="cls-1" d="M139.82,16.26V54.29l17.78-18.47h16.68l-19.36,18.87,21.55,32.47h-17.08l-14.1-22.94-5.46,5.26v17.68h-14.1V16.26h14.1Z"/>
    <path class="cls-1" d="M181.82,27.87v-11.62h14.1v11.62h-14.1Zm14.1,7.94v51.34h-14.1V35.82h14.1Z"/>
    <path class="cls-1" d="M220.46,69.68c.86,1.65,2,3,3.43,4.02,1.42,1.03,3.09,1.79,5.02,2.28,1.92,.5,3.91,.74,5.96,.74,1.39,0,2.88-.11,4.47-.35,1.59-.23,3.08-.68,4.47-1.34,1.39-.66,2.55-1.57,3.48-2.73,.93-1.16,1.39-2.63,1.39-4.42,0-1.92-.61-3.48-1.84-4.67-1.23-1.19-2.83-2.19-4.82-2.98-1.99-.8-4.24-1.49-6.75-2.09-2.52-.6-5.06-1.26-7.65-1.99-2.65-.66-5.23-1.47-7.75-2.43-2.52-.96-4.77-2.2-6.75-3.72-1.99-1.52-3.59-3.43-4.82-5.71-1.23-2.28-1.84-5.05-1.84-8.29,0-3.64,.78-6.8,2.33-9.48,1.55-2.68,3.59-4.91,6.11-6.7,2.52-1.79,5.36-3.11,8.54-3.97,3.18-.86,6.35-1.29,9.53-1.29,3.71,0,7.26,.41,10.68,1.24,3.41,.83,6.44,2.17,9.09,4.02,2.65,1.85,4.75,4.22,6.31,7.1,1.55,2.88,2.33,6.37,2.33,10.48h-15.09c-.13-2.12-.58-3.87-1.34-5.26-.76-1.39-1.77-2.48-3.03-3.28-1.26-.8-2.7-1.36-4.32-1.69-1.62-.33-3.39-.5-5.31-.5-1.26,0-2.52,.13-3.77,.4-1.26,.27-2.4,.73-3.43,1.39-1.03,.66-1.87,1.49-2.53,2.48-.66,.99-.99,2.25-.99,3.77,0,1.39,.26,2.52,.79,3.38,.53,.86,1.57,1.66,3.13,2.38,1.55,.73,3.71,1.46,6.45,2.18,2.75,.73,6.34,1.66,10.77,2.78,1.32,.27,3.16,.74,5.51,1.44,2.35,.7,4.68,1.81,7,3.33,2.32,1.52,4.32,3.56,6.01,6.11,1.69,2.55,2.53,5.81,2.53,9.78,0,3.24-.63,6.26-1.89,9.04-1.26,2.78-3.13,5.18-5.61,7.2s-5.56,3.59-9.24,4.72c-3.67,1.12-7.93,1.69-12.76,1.69-3.91,0-7.7-.48-11.37-1.44-3.67-.96-6.92-2.47-9.73-4.52-2.81-2.05-5.05-4.67-6.7-7.85-1.66-3.18-2.45-6.95-2.38-11.32h15.09c0,2.38,.43,4.4,1.29,6.06Z"/>
    <path class="cls-1" d="M299.7,35.82v9.43h-10.33v25.42c0,2.38,.4,3.97,1.19,4.77,.8,.8,2.38,1.19,4.77,1.19,.79,0,1.55-.03,2.28-.1,.73-.07,1.42-.16,2.09-.3v10.92c-1.19,.2-2.52,.33-3.97,.4-1.46,.06-2.88,.1-4.27,.1-2.18,0-4.25-.15-6.21-.45-1.95-.3-3.67-.88-5.16-1.74s-2.67-2.09-3.53-3.68c-.86-1.59-1.29-3.67-1.29-6.26v-30.29h-8.54v-9.43h8.54v-15.39h14.1v15.39h10.33Z"/>
    <path class="cls-1" d="M305.86,51.61c.2-3.31,1.02-6.06,2.48-8.24,1.45-2.19,3.31-3.94,5.56-5.26,2.25-1.32,4.78-2.27,7.6-2.83,2.81-.56,5.64-.84,8.49-.84,2.58,0,5.2,.18,7.85,.55,2.65,.36,5.06,1.08,7.25,2.14,2.18,1.06,3.97,2.53,5.36,4.42,1.39,1.89,2.09,4.39,2.09,7.5v26.71c0,2.32,.13,4.53,.4,6.65,.26,2.12,.73,3.71,1.39,4.77h-14.3c-.26-.8-.48-1.6-.64-2.43-.17-.83-.28-1.67-.35-2.53-2.25,2.32-4.9,3.94-7.94,4.87-3.05,.93-6.16,1.39-9.33,1.39-2.45,0-4.73-.3-6.85-.89-2.12-.6-3.97-1.52-5.56-2.78-1.59-1.26-2.83-2.85-3.72-4.77-.89-1.92-1.34-4.2-1.34-6.85,0-2.91,.51-5.31,1.54-7.2s2.35-3.39,3.97-4.52c1.62-1.12,3.48-1.97,5.56-2.53s4.19-1.01,6.31-1.34c2.12-.33,4.2-.6,6.26-.79,2.05-.2,3.87-.5,5.46-.89s2.85-.98,3.77-1.74c.93-.76,1.36-1.87,1.29-3.33,0-1.52-.25-2.73-.74-3.63s-1.16-1.59-1.99-2.09-1.79-.83-2.88-.99c-1.09-.16-2.27-.25-3.52-.25-2.78,0-4.97,.6-6.55,1.79-1.59,1.19-2.52,3.18-2.78,5.96h-14.1Zm32.57,10.43c-.6,.53-1.34,.94-2.23,1.24-.89,.3-1.85,.55-2.88,.74-1.03,.2-2.1,.36-3.23,.5-1.12,.13-2.25,.3-3.37,.5-1.06,.2-2.1,.47-3.13,.8-1.03,.33-1.92,.78-2.68,1.34-.76,.56-1.37,1.28-1.84,2.14-.46,.86-.69,1.95-.69,3.28s.23,2.32,.69,3.18c.46,.86,1.09,1.54,1.89,2.04s1.72,.84,2.78,1.04c1.06,.2,2.15,.3,3.28,.3,2.78,0,4.93-.46,6.45-1.39s2.65-2.04,3.38-3.33c.73-1.29,1.18-2.6,1.34-3.92,.16-1.32,.25-2.38,.25-3.18v-5.26Z"/>
    <path class="cls-1" d="M378.84,16.26V54.29l17.78-18.47h16.68l-19.36,18.87,21.55,32.47h-17.08l-14.1-22.94-5.46,5.26v17.68h-14.1V16.26h14.1Z"/>
    <path class="cls-1" d="M435.55,74.85c2.12,2.05,5.17,3.08,9.14,3.08,2.85,0,5.29-.71,7.35-2.13s3.31-2.93,3.77-4.52h12.41c-1.99,6.16-5.03,10.56-9.14,13.21-4.11,2.65-9.07,3.97-14.9,3.97-4.04,0-7.68-.65-10.92-1.94-3.24-1.29-5.99-3.13-8.24-5.51-2.25-2.38-3.99-5.23-5.21-8.54-1.23-3.31-1.84-6.95-1.84-10.92s.63-7.41,1.89-10.72c1.26-3.31,3.04-6.17,5.36-8.59s5.08-4.32,8.29-5.71c3.21-1.39,6.77-2.09,10.68-2.09,4.37,0,8.18,.84,11.42,2.53,3.24,1.69,5.91,3.96,7.99,6.8s3.59,6.09,4.52,9.73c.93,3.64,1.26,7.45,.99,11.42h-37.04c.2,4.57,1.36,7.88,3.48,9.93Zm15.94-27.01c-1.69-1.85-4.26-2.78-7.7-2.78-2.25,0-4.12,.38-5.61,1.14-1.49,.76-2.68,1.7-3.57,2.83-.89,1.13-1.52,2.32-1.89,3.57-.36,1.26-.58,2.38-.65,3.38h22.94c-.66-3.57-1.84-6.29-3.52-8.14Z"/>
  </g>
  <g>
    <path class="cls-1" d="M531.85,75.84c3.83,2.72,8.49,4.34,13.53,4.34,12.91,0,23.41-10.5,23.41-23.41,0-5.04-1.62-9.71-4.34-13.53-.37,17.82-14.78,32.23-32.6,32.6Z"/>
    <path class="cls-1" d="M544.68,23.46c-3.83-2.72-8.49-4.34-13.53-4.34-12.91,0-23.41,10.5-23.41,23.41,0,5.04,1.62,9.7,4.34,13.53,.38-17.82,14.78-32.23,32.6-32.6Z"/>
    <path class="cls-1" d="M521.97,56.77c0,2.74,.5,5.36,1.37,7.81,2.45,.87,5.07,1.37,7.81,1.37,12.91,0,23.41-10.5,23.41-23.41,0-2.74-.5-5.36-1.37-7.81-2.45-.87-5.07-1.37-7.81-1.37-12.91,0-23.41,10.5-23.41,23.41Z"/>
    <path class="cls-1" d="M571.8,16.39c-19.88-19.88-49.31-22.69-69.19-2.81-19.88,19.88-17.07,49.31,2.81,69.19,19.88,19.88,49.31,22.69,69.19,2.81,19.88-19.88,17.07-49.31-2.81-69.19Zm-26.42,73.72c-12.85,0-24.01-7.32-29.57-18-10.68-5.56-18-16.72-18-29.57,0-18.39,14.96-33.34,33.34-33.34,12.85,0,24.01,7.32,29.57,18,10.68,5.56,18,16.72,18,29.58,0,18.39-14.96,33.34-33.34,33.34Z"/>
  </g>
</svg>