<?xml version="1.0" encoding="UTF-8"?>
<svg id="Layer_1" data-name="Layer 1" xmlns="http://www.w3.org/2000/svg" viewBox="0 0 330.74 337.11">
  <defs>
    <style>
      .cls-1 {
        fill: #00998c;
      }
    </style>
  </defs>
  <g>
    <path class="cls-1" d="M41.3,335.99l-8.47-34.02h-.14l-8.33,34.02H13.23L0,286.01H10.99l7.91,34.02h.14l8.68-34.02h10.29l8.54,34.44h.14l8.19-34.44h10.78l-13.44,49.98h-10.92Z"/>
    <path class="cls-1" d="M69.93,294.2v-8.19h9.94v8.19h-9.94Zm9.94,5.6v36.19h-9.94v-36.19h9.94Z"/>
    <path class="cls-1" d="M98.56,286.01v26.81l12.53-13.02h11.76l-13.65,13.3,15.19,22.89h-12.04l-9.94-16.17-3.85,3.71v12.46h-9.94v-49.98h9.94Z"/>
    <path class="cls-1" d="M128.16,294.2v-8.19h9.94v8.19h-9.94Zm9.94,5.6v36.19h-9.94v-36.19h9.94Z"/>
    <path class="cls-1" d="M155.4,323.67c.61,1.17,1.41,2.11,2.41,2.83,1.01,.73,2.18,1.26,3.54,1.61,1.35,.35,2.75,.53,4.2,.53,.98,0,2.03-.08,3.15-.24,1.12-.17,2.17-.48,3.15-.95,.98-.46,1.8-1.11,2.45-1.92s.98-1.86,.98-3.12c0-1.35-.43-2.45-1.29-3.29-.86-.84-2-1.54-3.4-2.1-1.4-.56-2.98-1.05-4.76-1.47-1.78-.42-3.57-.89-5.39-1.4-1.87-.46-3.69-1.04-5.46-1.71-1.77-.67-3.36-1.55-4.76-2.63-1.4-1.07-2.53-2.41-3.4-4.02s-1.29-3.56-1.29-5.84c0-2.57,.55-4.79,1.65-6.68,1.09-1.89,2.53-3.47,4.31-4.73,1.77-1.26,3.78-2.19,6.02-2.8,2.24-.61,4.48-.91,6.72-.91,2.61,0,5.12,.29,7.52,.88,2.4,.58,4.54,1.53,6.41,2.83,1.87,1.31,3.34,2.97,4.44,5,1.09,2.03,1.65,4.49,1.65,7.39h-10.64c-.09-1.49-.41-2.73-.95-3.71s-1.25-1.75-2.13-2.31c-.89-.56-1.9-.96-3.05-1.19-1.14-.23-2.39-.35-3.75-.35-.88,0-1.77,.1-2.66,.28-.89,.19-1.69,.51-2.42,.98-.72,.47-1.32,1.05-1.78,1.75-.47,.7-.7,1.59-.7,2.66,0,.98,.19,1.77,.56,2.38,.37,.61,1.11,1.17,2.2,1.68,1.1,.51,2.62,1.03,4.55,1.54,1.94,.52,4.47,1.17,7.6,1.96,.93,.19,2.23,.52,3.88,1.02,1.66,.49,3.3,1.27,4.94,2.34s3.05,2.51,4.23,4.31c1.19,1.8,1.79,4.09,1.79,6.89,0,2.29-.44,4.41-1.33,6.37-.89,1.96-2.21,3.65-3.96,5.08-1.75,1.42-3.92,2.53-6.51,3.33-2.59,.79-5.59,1.19-8.99,1.19-2.75,0-5.42-.34-8.01-1.01-2.59-.68-4.88-1.74-6.86-3.19-1.99-1.45-3.56-3.29-4.73-5.53-1.17-2.24-1.73-4.9-1.68-7.98h10.64c0,1.68,.3,3.11,.91,4.27Z"/>
    <path class="cls-1" d="M211.26,299.8v6.65h-7.28v17.92c0,1.68,.28,2.8,.84,3.36,.56,.56,1.68,.84,3.36,.84,.56,0,1.09-.02,1.61-.07,.51-.04,1-.12,1.47-.21v7.7c-.84,.14-1.78,.23-2.8,.28-1.03,.05-2.03,.07-3.01,.07-1.54,0-3-.11-4.38-.32-1.38-.21-2.59-.62-3.64-1.23-1.05-.61-1.88-1.47-2.49-2.59-.61-1.12-.91-2.59-.91-4.41v-21.35h-6.02v-6.65h6.02v-10.85h9.94v10.85h7.28Z"/>
    <path class="cls-1" d="M215.6,310.93c.14-2.33,.72-4.27,1.75-5.81,1.03-1.54,2.33-2.78,3.92-3.71s3.37-1.6,5.36-2c1.98-.4,3.98-.59,5.99-.59,1.82,0,3.66,.13,5.53,.38,1.87,.26,3.57,.76,5.11,1.51,1.54,.75,2.8,1.78,3.78,3.12,.98,1.33,1.47,3.09,1.47,5.28v18.83c0,1.64,.09,3.2,.28,4.69s.51,2.61,.98,3.36h-10.08c-.19-.56-.34-1.13-.45-1.71-.12-.59-.2-1.18-.25-1.79-1.59,1.64-3.45,2.78-5.6,3.43-2.14,.65-4.34,.98-6.58,.98-1.73,0-3.34-.21-4.83-.63-1.49-.42-2.8-1.07-3.92-1.96s-2-2.01-2.63-3.36-.94-2.96-.94-4.83c0-2.06,.36-3.75,1.08-5.08,.72-1.33,1.66-2.39,2.8-3.18,1.14-.79,2.45-1.39,3.92-1.79,1.47-.4,2.95-.71,4.45-.94,1.49-.23,2.96-.42,4.41-.56,1.45-.14,2.73-.35,3.85-.63,1.12-.28,2.01-.69,2.66-1.23,.65-.53,.96-1.32,.91-2.34,0-1.07-.18-1.92-.52-2.55-.35-.63-.82-1.12-1.4-1.47-.59-.35-1.26-.59-2.03-.7-.77-.11-1.6-.17-2.49-.17-1.96,0-3.5,.42-4.62,1.26-1.12,.84-1.77,2.24-1.96,4.2h-9.94Zm22.96,7.35c-.42,.38-.94,.66-1.57,.87s-1.31,.39-2.03,.53c-.72,.14-1.48,.25-2.28,.35-.8,.1-1.59,.21-2.38,.35-.75,.14-1.48,.33-2.21,.56s-1.35,.55-1.89,.94c-.54,.4-.97,.9-1.29,1.51-.33,.61-.49,1.38-.49,2.31,0,.88,.17,1.63,.49,2.24,.33,.61,.77,1.09,1.33,1.44,.56,.35,1.22,.6,1.96,.74,.74,.14,1.51,.21,2.31,.21,1.96,0,3.48-.33,4.55-.98,1.07-.65,1.87-1.44,2.38-2.34,.51-.91,.83-1.83,.94-2.76,.12-.94,.18-1.68,.18-2.24v-3.71Z"/>
    <path class="cls-1" d="M267.05,286.01v26.81l12.53-13.02h11.76l-13.65,13.3,15.19,22.89h-12.04l-9.94-16.17-3.85,3.71v12.46h-9.94v-49.98h9.94Z"/>
    <path class="cls-1" d="M307.01,327.31c1.49,1.45,3.64,2.17,6.44,2.17,2.01,0,3.74-.5,5.18-1.5,1.45-1.01,2.33-2.07,2.66-3.19h8.75c-1.4,4.34-3.55,7.45-6.44,9.31-2.9,1.87-6.4,2.8-10.5,2.8-2.85,0-5.41-.45-7.7-1.36-2.29-.91-4.22-2.21-5.81-3.89-1.59-1.68-2.81-3.69-3.68-6.02s-1.29-4.9-1.29-7.7,.44-5.22,1.33-7.56,2.15-4.35,3.78-6.05c1.64-1.7,3.58-3.05,5.84-4.02,2.27-.98,4.77-1.47,7.52-1.47,3.08,0,5.77,.59,8.05,1.78s4.17,2.79,5.63,4.79,2.53,4.3,3.18,6.86c.65,2.57,.89,5.25,.7,8.05h-26.11c.14,3.22,.96,5.55,2.45,7Zm11.24-19.04c-1.19-1.31-3-1.96-5.42-1.96-1.59,0-2.91,.27-3.96,.8-1.05,.54-1.89,1.21-2.52,2-.63,.8-1.07,1.64-1.33,2.52-.26,.89-.41,1.68-.46,2.38h16.17c-.47-2.52-1.29-4.43-2.49-5.74Z"/>
  </g>
  <g>
    <path class="cls-1" d="M148.35,190.93c9.63,6.85,21.37,10.92,34.06,10.92,32.5,0,58.95-26.44,58.95-58.94,0-12.69-4.07-24.43-10.92-34.06-.94,44.87-37.21,81.14-82.08,82.08Z"/>
    <path class="cls-1" d="M180.64,59.06c-9.63-6.85-21.37-10.92-34.06-10.92-32.5,0-58.95,26.44-58.95,58.95,0,12.69,4.07,24.43,10.93,34.06,.94-44.87,37.21-81.14,82.08-82.08Z"/>
    <path class="cls-1" d="M123.47,142.91c0,6.9,1.25,13.5,3.44,19.66,6.16,2.19,12.76,3.44,19.67,3.44,32.5,0,58.94-26.44,58.94-58.94,0-6.9-1.25-13.5-3.44-19.67-6.16-2.19-12.76-3.44-19.67-3.44-32.5,0-58.94,26.44-58.94,58.95Z"/>
    <path class="cls-1" d="M248.93,41.26C198.87-8.79,124.79-15.86,74.74,34.19c-50.05,50.05-42.98,124.14,7.07,174.19,50.05,50.05,124.14,57.13,174.19,7.07,50.05-50.05,42.98-124.14-7.07-174.19Zm-66.51,185.59c-32.36,0-60.45-18.44-74.45-45.33-26.89-14.01-45.32-42.09-45.32-74.45,0-46.29,37.66-83.95,83.95-83.95,32.36,0,60.45,18.43,74.45,45.32,26.89,14.01,45.32,42.1,45.32,74.46,0,46.28-37.66,83.94-83.95,83.94Z"/>
  </g>
</svg>