<?xml version="1.0" encoding="UTF-8"?>
<svg id="Layer_1" data-name="Layer 1" xmlns="http://www.w3.org/2000/svg" viewBox="0 0 499.29 499.29">
  <defs>
    <style>
      .cls-1 {
        fill: #1a1818;
      }
    </style>
  </defs>
  <path class="cls-1" d="M215.62,381.85c19.26,13.7,42.73,21.85,68.12,21.85,65.01,0,117.89-52.88,117.89-117.88,0-25.39-8.15-48.87-21.85-68.13-1.89,89.73-74.43,162.28-164.16,164.16Z"/>
  <path class="cls-1" d="M280.2,118.11c-19.26-13.7-42.73-21.85-68.12-21.85-65.01,0-117.89,52.88-117.89,117.89,0,25.39,8.15,48.86,21.85,68.12,1.89-89.74,74.43-162.28,164.16-164.16Z"/>
  <path class="cls-1" d="M165.86,285.82c0,13.8,2.51,27,6.89,39.32,12.32,4.38,25.52,6.89,39.33,6.89,65,0,117.88-52.88,117.88-117.88,0-13.81-2.51-27.01-6.89-39.33-12.32-4.38-25.52-6.89-39.33-6.89-65,0-117.88,52.88-117.88,117.89Z"/>
  <path class="cls-1" d="M416.77,82.53C316.66-17.58,168.49-31.72,68.38,68.38c-100.11,100.11-85.97,248.28,14.14,348.39,100.11,100.11,248.27,114.25,348.38,14.14,100.11-100.11,85.97-248.27-14.14-348.38Zm-133.03,371.18c-64.72,0-120.89-36.87-148.9-90.65-53.78-28.01-90.65-84.19-90.65-148.9,0-92.58,75.31-167.89,167.89-167.89,64.71,0,120.89,36.87,148.9,90.65,53.78,28.01,90.65,84.19,90.65,148.91,0,92.57-75.31,167.88-167.89,167.88Z"/>
</svg>