<?xml version="1.0" encoding="UTF-8"?>
<svg id="Layer_1" data-name="Layer 1" xmlns="http://www.w3.org/2000/svg" viewBox="0 0 589.34 99.36">
  <defs>
    <style>
      .cls-1 {
        fill: #049a8d;
      }
    </style>
  </defs>
  <g>
    <path class="cls-1" d="M58.7,87.33l-12.04-48.36h-.2l-11.84,48.36h-15.82L0,16.29H15.62l11.24,48.36h.2l12.34-48.36h14.63l12.14,48.95h.2l11.64-48.95h15.32l-19.1,71.04h-15.52Z"/>
    <path class="cls-1" d="M99.4,27.93v-11.64h14.13v11.64h-14.13Zm14.13,7.96v51.44h-14.13V35.89h14.13Z"/>
    <path class="cls-1" d="M140.09,16.29V54.4l17.81-18.51h16.71l-19.4,18.9,21.59,32.54h-17.12l-14.13-22.98-5.47,5.27v17.71h-14.13V16.29h14.13Z"/>
    <path class="cls-1" d="M182.18,27.93v-11.64h14.13v11.64h-14.13Zm14.13,7.96v51.44h-14.13V35.89h14.13Z"/>
    <path class="cls-1" d="M220.89,69.82c.86,1.66,2.01,3,3.43,4.03,1.43,1.03,3.1,1.79,5.03,2.29,1.92,.5,3.91,.75,5.97,.75,1.39,0,2.88-.11,4.48-.35,1.59-.23,3.08-.68,4.48-1.34,1.39-.66,2.55-1.58,3.48-2.74,.93-1.16,1.39-2.64,1.39-4.43,0-1.92-.61-3.48-1.84-4.68-1.23-1.2-2.84-2.19-4.83-2.98-1.99-.8-4.25-1.49-6.77-2.09-2.52-.6-5.07-1.26-7.66-1.99-2.65-.66-5.24-1.48-7.76-2.44-2.52-.96-4.77-2.2-6.76-3.73-1.99-1.53-3.6-3.43-4.83-5.72-1.23-2.29-1.84-5.06-1.84-8.31,0-3.65,.78-6.82,2.34-9.5,1.56-2.69,3.6-4.92,6.12-6.72,2.52-1.79,5.37-3.12,8.56-3.98,3.18-.86,6.37-1.29,9.55-1.29,3.71,0,7.28,.41,10.7,1.24,3.41,.83,6.45,2.17,9.1,4.03,2.65,1.86,4.76,4.23,6.32,7.11,1.56,2.89,2.34,6.39,2.34,10.5h-15.12c-.13-2.12-.58-3.88-1.34-5.27s-1.77-2.49-3.03-3.28c-1.26-.8-2.7-1.36-4.33-1.69-1.63-.33-3.4-.5-5.32-.5-1.26,0-2.52,.13-3.78,.4-1.26,.27-2.41,.73-3.43,1.39s-1.87,1.49-2.54,2.49c-.66,.99-.99,2.26-.99,3.78,0,1.39,.26,2.52,.79,3.38,.53,.86,1.58,1.66,3.13,2.39,1.56,.73,3.71,1.46,6.47,2.19,2.75,.73,6.35,1.66,10.8,2.79,1.33,.27,3.17,.75,5.52,1.44,2.35,.7,4.69,1.81,7.02,3.33,2.32,1.53,4.33,3.57,6.02,6.12,1.69,2.56,2.54,5.82,2.54,9.8,0,3.25-.63,6.27-1.89,9.05-1.26,2.78-3.13,5.19-5.62,7.21s-5.57,3.6-9.25,4.73c-3.68,1.13-7.94,1.69-12.79,1.69-3.91,0-7.71-.48-11.39-1.44-3.68-.96-6.93-2.47-9.75-4.53-2.82-2.05-5.06-4.68-6.72-7.86-1.66-3.18-2.45-6.96-2.39-11.34h15.12c0,2.39,.43,4.41,1.29,6.07Z"/>
    <path class="cls-1" d="M300.28,35.89v9.45h-10.35v25.47c0,2.39,.4,3.98,1.19,4.77,.8,.8,2.39,1.2,4.78,1.2,.79,0,1.56-.03,2.29-.1,.73-.07,1.43-.17,2.09-.3v10.94c-1.19,.2-2.52,.33-3.98,.4-1.46,.06-2.88,.1-4.28,.1-2.19,0-4.26-.15-6.22-.45-1.96-.3-3.68-.88-5.18-1.74s-2.67-2.09-3.53-3.68c-.86-1.59-1.29-3.68-1.29-6.27v-30.35h-8.56v-9.45h8.56v-15.42h14.13v15.42h10.35Z"/>
    <path class="cls-1" d="M306.45,51.71c.2-3.32,1.03-6.07,2.49-8.26,1.46-2.19,3.32-3.95,5.57-5.27,2.25-1.33,4.79-2.27,7.61-2.84,2.82-.56,5.65-.85,8.51-.85,2.59,0,5.21,.18,7.86,.55,2.65,.37,5.07,1.08,7.26,2.14,2.19,1.06,3.98,2.54,5.37,4.43,1.39,1.89,2.09,4.39,2.09,7.51v26.77c0,2.32,.13,4.54,.4,6.67,.26,2.12,.73,3.72,1.39,4.78h-14.33c-.26-.8-.48-1.61-.65-2.44-.17-.83-.28-1.68-.35-2.54-2.25,2.32-4.91,3.95-7.96,4.88-3.05,.93-6.17,1.39-9.35,1.39-2.46,0-4.74-.3-6.87-.9-2.12-.6-3.98-1.53-5.57-2.79-1.59-1.26-2.84-2.85-3.73-4.77-.9-1.92-1.34-4.21-1.34-6.87,0-2.92,.51-5.32,1.54-7.21s2.35-3.4,3.98-4.53c1.62-1.13,3.48-1.97,5.57-2.54s4.2-1.01,6.32-1.34c2.12-.33,4.21-.6,6.27-.79,2.06-.2,3.88-.5,5.47-.9s2.85-.98,3.78-1.74c.93-.76,1.36-1.87,1.29-3.33,0-1.53-.25-2.74-.75-3.63s-1.16-1.59-1.99-2.09-1.79-.83-2.89-.99c-1.09-.17-2.27-.25-3.53-.25-2.79,0-4.97,.6-6.57,1.79-1.59,1.2-2.52,3.19-2.79,5.97h-14.13Zm32.63,10.45c-.6,.53-1.34,.95-2.24,1.24-.9,.3-1.86,.55-2.89,.75-1.03,.2-2.11,.37-3.23,.5-1.13,.13-2.25,.3-3.38,.5-1.06,.2-2.11,.47-3.13,.8-1.03,.33-1.93,.78-2.69,1.34-.76,.57-1.38,1.28-1.84,2.14-.46,.86-.7,1.96-.7,3.28s.23,2.32,.7,3.18c.46,.86,1.09,1.54,1.89,2.04s1.72,.85,2.79,1.04c1.06,.2,2.15,.3,3.28,.3,2.79,0,4.94-.46,6.47-1.39s2.65-2.04,3.38-3.33c.73-1.29,1.18-2.6,1.34-3.93,.17-1.33,.25-2.39,.25-3.18v-5.27Z"/>
    <path class="cls-1" d="M379.58,16.29V54.4l17.81-18.51h16.71l-19.4,18.9,21.59,32.54h-17.12l-14.13-22.98-5.47,5.27v17.71h-14.13V16.29h14.13Z"/>
    <path class="cls-1" d="M436.4,74.99c2.12,2.06,5.18,3.08,9.16,3.08,2.85,0,5.31-.71,7.36-2.14s3.32-2.94,3.78-4.53h12.44c-1.99,6.17-5.04,10.58-9.15,13.23-4.11,2.65-9.09,3.98-14.92,3.98-4.05,0-7.7-.65-10.94-1.94-3.25-1.29-6-3.13-8.26-5.52-2.26-2.39-4-5.24-5.22-8.56-1.23-3.32-1.84-6.96-1.84-10.94s.63-7.43,1.89-10.74c1.26-3.32,3.05-6.19,5.37-8.61s5.09-4.33,8.31-5.72c3.22-1.39,6.78-2.09,10.7-2.09,4.38,0,8.19,.85,11.44,2.54,3.25,1.69,5.92,3.96,8.01,6.82s3.6,6.1,4.53,9.75c.93,3.65,1.26,7.46,.99,11.44h-37.11c.2,4.58,1.36,7.9,3.48,9.95Zm15.97-27.06c-1.69-1.86-4.26-2.79-7.71-2.79-2.26,0-4.13,.38-5.62,1.14-1.49,.76-2.69,1.71-3.58,2.84-.9,1.13-1.53,2.32-1.89,3.58-.37,1.26-.58,2.39-.65,3.38h22.98c-.66-3.58-1.84-6.3-3.53-8.16Z"/>
  </g>
  <g>
    <path class="cls-1" d="M532.89,75.99c3.83,2.73,8.5,4.35,13.56,4.35,12.94,0,23.46-10.52,23.46-23.46,0-5.05-1.62-9.72-4.35-13.56-.38,17.86-14.81,32.29-32.67,32.67Z"/>
    <path class="cls-1" d="M545.74,23.5c-3.83-2.73-8.5-4.35-13.56-4.35-12.94,0-23.46,10.52-23.46,23.46,0,5.05,1.62,9.72,4.35,13.56,.38-17.86,14.81-32.29,32.67-32.67Z"/>
    <path class="cls-1" d="M522.99,56.88c0,2.75,.5,5.37,1.37,7.82,2.45,.87,5.08,1.37,7.83,1.37,12.93,0,23.46-10.52,23.46-23.46,0-2.75-.5-5.37-1.37-7.83-2.45-.87-5.08-1.37-7.83-1.37-12.93,0-23.46,10.52-23.46,23.46Z"/>
    <path class="cls-1" d="M572.92,16.42c-19.92-19.92-49.41-22.74-69.33-2.81-19.92,19.92-17.11,49.41,2.81,69.33,19.92,19.92,49.41,22.74,69.33,2.81,19.92-19.92,17.11-49.41-2.81-69.33Zm-26.47,73.86c-12.88,0-24.06-7.34-29.63-18.04-10.7-5.57-18.04-16.75-18.04-29.63,0-18.42,14.99-33.41,33.41-33.41,12.88,0,24.06,7.34,29.63,18.04,10.7,5.57,18.04,16.75,18.04,29.63,0,18.42-14.99,33.41-33.41,33.41Z"/>
  </g>
</svg>