<?xml version="1.0" encoding="UTF-8"?>
<svg id="Layer_1" data-name="Layer 1" xmlns="http://www.w3.org/2000/svg" xmlns:xlink="http://www.w3.org/1999/xlink" viewBox="0 0 635.15 566.69">
  <defs>
    <style>
      .cls-1, .cls-2, .cls-3, .cls-4, .cls-5, .cls-6, .cls-7, .cls-8, .cls-9, .cls-10, .cls-11, .cls-12, .cls-13, .cls-14, .cls-15, .cls-16, .cls-17, .cls-18, .cls-19, .cls-20, .cls-21, .cls-22, .cls-23, .cls-24, .cls-25, .cls-26, .cls-27, .cls-28, .cls-29, .cls-30, .cls-31, .cls-32, .cls-33, .cls-34, .cls-35, .cls-36, .cls-37, .cls-38, .cls-39, .cls-40, .cls-41, .cls-42, .cls-43, .cls-44, .cls-45, .cls-46, .cls-47, .cls-48, .cls-49, .cls-50, .cls-51, .cls-52, .cls-53 {
        fill: none;
      }

      .cls-54 {
        fill: url(#linear-gradient);
      }

      .cls-55 {
        clip-path: url(#clippath);
      }

      .cls-2 {
        stroke: #3360a7;
      }

      .cls-2, .cls-3, .cls-4 {
        stroke-miterlimit: 10;
      }

      .cls-3 {
        stroke: #2a61aa;
      }

      .cls-4 {
        stroke: #3b60a5;
      }

      .cls-5 {
        stroke: #1e61ae;
      }

      .cls-5, .cls-6, .cls-7, .cls-8, .cls-9, .cls-10, .cls-11, .cls-12, .cls-13, .cls-14, .cls-15, .cls-16, .cls-17, .cls-18, .cls-19, .cls-20, .cls-21, .cls-22, .cls-23, .cls-24, .cls-25, .cls-26, .cls-27, .cls-28, .cls-29, .cls-30, .cls-31, .cls-32, .cls-33, .cls-34, .cls-35, .cls-36, .cls-37, .cls-39, .cls-40, .cls-41, .cls-42, .cls-43, .cls-44, .cls-45, .cls-46, .cls-47, .cls-48, .cls-49, .cls-50, .cls-51, .cls-52, .cls-53 {
        stroke-miterlimit: 10;
      }

      .cls-6 {
        stroke: #415fa2;
      }

      .cls-7 {
        stroke: #8e5576;
      }

      .cls-8 {
        stroke: #bb4755;
      }

      .cls-9 {
        stroke: #b84957;
      }

      .cls-10 {
        stroke: #915474;
      }

      .cls-11 {
        stroke: #655c91;
      }

      .cls-12 {
        stroke: #c4434d;
      }

      .cls-13 {
        stroke: #9e516a;
      }

      .cls-14 {
        stroke: #945471;
      }

      .cls-15 {
        stroke: #a44f66;
      }

      .cls-16 {
        stroke: #87577b;
      }

      .cls-17 {
        stroke: #a15068;
      }

      .cls-18 {
        stroke: #6a5c8f;
      }

      .cls-19 {
        stroke: #805880;
      }

      .cls-20 {
        stroke: #98536f;
      }

      .cls-21 {
        stroke: #7d5982;
      }

      .cls-22 {
        stroke: #e52f2f;
      }

      .cls-23 {
        stroke: #e82c2c;
      }

      .cls-24 {
        stroke: #d33b3f;
      }

      .cls-25 {
        stroke: #c7424a;
      }

      .cls-26 {
        stroke: #cd3f45;
      }

      .cls-27 {
        stroke: #725b8a;
      }

      .cls-28 {
        stroke: #585e98;
      }

      .cls-29 {
        stroke: #84577e;
      }

      .cls-30 {
        stroke: #5c5d96;
      }

      .cls-31 {
        stroke: #485fa0;
      }

      .cls-32 {
        stroke: #8a5679;
      }

      .cls-33 {
        stroke: #9b526d;
      }

      .cls-34 {
        stroke: #535e9b;
      }

      .cls-35 {
        stroke: #795985;
      }

      .cls-36 {
        stroke: #6e5b8c;
      }

      .cls-37 {
        stroke: #755a87;
      }

      .cls-38 {
        stroke: #4d5f9d;
        stroke-miterlimit: 10;
      }

      .cls-39 {
        stroke: #615d93;
      }

      .cls-40 {
        stroke: #d9383a;
      }

      .cls-41 {
        stroke: #be4652;
      }

      .cls-42 {
        stroke: #b14b5c;
      }

      .cls-43 {
        stroke: #a84e63;
      }

      .cls-44 {
        stroke: #ab4d61;
      }

      .cls-45 {
        stroke: #b44a5a;
      }

      .cls-46 {
        stroke: #c14550;
      }

      .cls-47 {
        stroke: #d03d42;
      }

      .cls-48 {
        stroke: #d63a3d;
      }

      .cls-49 {
        stroke: #ae4c5f;
      }

      .cls-50 {
        stroke: #dc3537;
      }

      .cls-51 {
        stroke: #df3334;
      }

      .cls-52 {
        stroke: #ca4048;
      }

      .cls-53 {
        stroke: #e23131;
      }

      .cls-56 {
        opacity: .5;
      }
    </style>
    <clipPath id="clippath">
      <rect class="cls-1" x="0" y="22.59" width="605.49" height="460.65"/>
    </clipPath>
    <linearGradient id="linear-gradient" x1="-44.25" y1="331.17" x2="376.49" y2="457.72" gradientTransform="translate(97.69 -161.03) rotate(9.53)" gradientUnits="userSpaceOnUse">
      <stop offset=".02" stop-color="#049a8d"/>
      <stop offset="1" stop-color="#2570b8" stop-opacity="0"/>
    </linearGradient>
  </defs>
  <g class="cls-56">
    <g class="cls-55">
      <path class="cls-54" d="M224.09,115.4s2.12-48.6,63.67-19.07c61.56,29.52,130.29,43.38,94.71,120.15-35.57,76.77-69.07,15.21-60.87,119.39,8.2,104.18,52.96-18.32,57.06,38.31,4.1,56.62-230.55,121.53-231.43,45.79-.89-75.74-5.02-105.15-88.12-96.44-105.83,11.1-43.99-80.1-10.22-146.16,33.77-66.07,163.45-38.73,175.19-61.97Z"/>
      <g>
        <path class="cls-5" d="M50.19,.24c40.87,73.35,43.52,128.2,32.77,168.83-16.97,64.14-66.73,90.53-54.28,129.24,12.6,39.2,69.01,28.86,99.69,84.66,13.24,24.08,25.21,66.88,4.05,88.07-16.46,16.48-45.07,11.98-52.82,10.53"/>
        <path class="cls-3" d="M61.66,.41c40.07,71.91,37.74,129.17,27.2,169-16.64,62.89-69.43,91.59-57.22,129.54,12.36,38.43,69,30.5,99.09,85.2,8.15,14.83,16.42,37.89,15.85,57.4-.34,11.55-3.92,22.74-11.64,30.47-16.14,16.16-44.79,12.64-52.38,11.22"/>
        <path class="cls-2" d="M73.12,.57c39.27,70.47,31.96,130.13,21.64,169.17-16.31,61.63-72.12,92.65-60.17,129.84,12.11,37.67,69,32.13,98.48,85.75,7.99,14.53,16.71,38.14,16.15,57.26-.33,11.32-4.2,22.83-11.77,30.41-15.82,15.84-44.5,13.3-51.94,11.91"/>
        <path class="cls-4" d="M84.59,.73c38.46,69.04,26.19,131.1,16.07,169.34-15.97,60.37-74.82,93.71-63.11,130.14,11.86,36.9,68.99,33.77,97.87,86.29,7.83,14.24,17,38.39,16.45,57.12-.32,11.09-4.49,22.92-11.9,30.34-15.49,15.51-44.21,13.97-51.51,12.6"/>
        <path class="cls-6" d="M96.05,.9c37.66,67.6,20.41,132.07,10.51,169.51-15.64,59.11-77.52,94.76-66.05,130.44,11.62,36.13,68.99,35.41,97.27,86.83,7.66,13.94,17.29,38.64,16.75,56.98-.32,10.86-4.78,23.02-12.03,30.28-15.17,15.19-43.93,14.63-51.07,13.29"/>
        <path class="cls-31" d="M107.51,1.06c36.86,66.16,14.64,133.04,4.94,169.68-15.31,57.85-80.22,95.82-68.99,130.74,11.37,35.36,68.98,37.04,96.66,87.37,7.5,13.64,17.58,38.89,17.05,56.84-.31,10.63-5.06,23.11-12.16,30.21-14.85,14.87-43.64,15.29-50.63,13.98"/>
        <path class="cls-38" d="M118.98,1.22c36.06,64.72,8.86,134-.62,169.85-14.97,56.6-82.92,96.88-71.94,131.04,11.12,34.59,68.98,38.68,96.05,87.92,7.34,13.35,17.87,39.14,17.35,56.7-.3,10.4-5.35,23.2-12.29,30.15-14.53,14.54-43.36,15.95-50.19,14.67"/>
        <path class="cls-34" d="M130.44,1.39c35.26,63.28,3.08,134.97-6.19,170.02-14.64,55.34-85.62,97.94-74.88,131.34,10.87,33.82,68.97,40.32,95.45,88.46,7.18,13.05,18.15,39.39,17.65,56.56-.3,10.17-5.63,23.29-12.42,30.09-14.2,14.22-43.07,16.61-49.75,15.36"/>
        <path class="cls-28" d="M141.91,1.55c34.46,61.85-2.69,135.94-11.76,170.19-14.31,54.08-88.32,99-77.82,131.64,10.63,33.05,68.97,41.95,94.84,89,7.01,12.75,18.44,39.64,17.95,56.42-.29,9.93-5.92,23.38-12.55,30.02-13.88,13.9-42.78,17.28-49.32,16.05"/>
        <path class="cls-30" d="M153.37,1.71c33.66,60.41-8.47,136.91-17.32,170.37-13.98,52.82-91.02,100.06-80.77,131.94,10.38,32.28,68.96,43.59,94.23,89.54,6.85,12.46,18.73,39.89,18.25,56.28-.28,9.7-6.2,23.47-12.69,29.96-13.56,13.57-42.5,17.94-48.88,16.74"/>
        <path class="cls-39" d="M164.83,1.87c32.86,58.97-14.24,137.87-22.89,170.54-13.64,51.57-93.71,101.12-83.71,132.24,10.13,31.52,68.96,45.23,93.62,90.09,6.69,12.16,19.02,40.14,18.55,56.14-.28,9.47-6.49,23.56-12.82,29.9-13.24,13.25-42.21,18.6-48.44,17.43"/>
        <path class="cls-11" d="M176.3,2.04c32.05,57.53-20.02,138.84-28.45,170.71-13.31,50.31-96.41,102.17-86.65,132.54,9.89,30.75,68.95,46.86,93.02,90.63,6.52,11.86,19.31,40.39,18.85,56-.27,9.24-6.77,23.65-12.95,29.83-12.91,12.93-41.93,19.26-48,18.12"/>
        <path class="cls-18" d="M187.76,2.2c31.25,56.09-25.8,139.81-34.02,170.88-12.98,49.05-99.11,103.23-89.59,132.84,9.64,29.98,68.95,48.5,92.41,91.17,6.36,11.57,19.6,40.65,19.15,55.87-.26,9.01-7.06,23.74-13.08,29.77-12.59,12.6-41.64,19.92-47.57,18.81"/>
        <path class="cls-36" d="M199.23,2.36c30.45,54.65-31.57,140.78-39.58,171.05-12.65,47.79-101.81,104.29-92.54,133.13,9.39,29.21,68.94,50.14,91.8,91.71,6.2,11.27,19.89,40.9,19.45,55.73-.26,8.78-7.35,23.83-13.21,29.71-12.27,12.28-41.36,20.58-47.13,19.5"/>
        <path class="cls-27" d="M210.69,2.53c29.65,53.22-37.35,141.75-45.15,171.22-12.31,46.53-104.51,105.35-95.48,133.43,9.14,28.44,68.94,51.77,91.2,92.26,6.03,10.97,20.18,41.15,19.75,55.59-.25,8.55-7.63,23.93-13.34,29.64-11.94,11.96-41.07,21.25-46.69,20.19"/>
        <path class="cls-37" d="M222.16,2.69c28.85,51.78-43.13,142.71-50.71,171.39-11.98,45.28-107.21,106.41-98.42,133.73,8.9,27.67,68.93,53.41,90.59,92.8,5.87,10.68,20.46,41.4,20.05,55.45-.24,8.32-7.92,24.02-13.47,29.58-11.62,11.64-40.78,21.91-46.25,20.88"/>
        <path class="cls-35" d="M233.62,2.85c28.05,50.34-48.9,143.68-56.28,171.56-11.65,44.02-109.91,107.47-101.37,134.03,8.65,26.9,68.93,55.05,89.98,93.34,5.71,10.38,20.75,41.65,20.35,55.31-.24,8.09-8.2,24.11-13.6,29.52-11.3,11.31-40.5,22.57-45.81,21.57"/>
        <path class="cls-21" d="M245.08,3.02c27.25,48.9-54.68,144.65-61.84,171.73-11.31,42.76-112.61,108.53-104.31,134.33,8.4,26.14,68.92,56.68,89.38,93.88,5.54,10.08,21.04,41.9,20.65,55.17-.23,7.86-8.49,24.2-13.74,29.45-10.98,10.99-40.21,23.23-45.38,22.26"/>
        <path class="cls-19" d="M256.55,3.18c26.44,47.46-60.45,145.62-67.41,171.9-10.98,41.5-115.31,109.59-107.25,134.63,8.16,25.37,68.92,58.32,88.77,94.43,5.38,9.79,21.33,42.15,20.95,55.03-.22,7.62-8.77,24.29-13.87,29.39-10.65,10.67-39.93,23.89-44.94,22.95"/>
        <path class="cls-29" d="M268.01,3.34c25.64,46.02-66.23,146.58-72.98,172.08-10.65,40.25-118,110.64-110.2,134.93,7.91,24.6,68.91,59.96,88.16,94.97,5.22,9.49,21.62,42.4,21.25,54.89-.22,7.39-9.06,24.38-14,29.33-10.33,10.34-39.64,24.56-44.5,23.64"/>
        <path class="cls-16" d="M279.48,3.51c24.84,44.59-72.01,147.55-78.54,172.25-10.32,38.99-120.7,111.7-113.14,135.23,7.66,23.83,68.91,61.59,87.56,95.51,5.06,9.19,21.91,42.65,21.55,54.75-.21,7.16-9.34,24.47-14.13,29.26-10.01,10.02-39.35,25.22-44.06,24.33"/>
        <path class="cls-32" d="M290.94,3.67c24.04,43.15-77.78,148.52-84.11,172.42-9.98,37.73-123.4,112.76-116.08,135.53,7.41,23.06,68.9,63.23,86.95,96.05,4.89,8.9,22.2,42.9,21.85,54.61-.2,6.93-9.63,24.56-14.26,29.2-9.68,9.7-39.07,25.88-43.63,25.02"/>
        <path class="cls-7" d="M302.4,3.83c23.24,41.71-83.56,149.49-89.67,172.59-9.65,36.47-126.1,113.82-119.02,135.83,7.17,22.29,68.89,64.87,86.34,96.6,4.73,8.6,22.49,43.15,22.15,54.47-.2,6.7-9.92,24.65-14.39,29.13-9.36,9.37-38.78,26.54-43.19,25.71"/>
        <path class="cls-10" d="M313.87,3.99c22.44,40.27-89.34,150.45-95.24,172.76-9.32,35.22-128.8,114.88-121.97,136.13,6.92,21.52,68.89,66.5,85.74,97.14,4.57,8.3,22.77,43.4,22.45,54.33-.19,6.47-10.2,24.74-14.52,29.07-9.04,9.05-38.5,27.2-42.75,26.41"/>
        <path class="cls-14" d="M325.33,4.16c21.64,38.83-95.11,151.42-100.8,172.93-8.98,33.96-131.5,115.94-124.91,136.43,6.67,20.75,68.88,68.14,85.13,97.68,4.4,8.01,23.06,43.65,22.75,54.19-.18,6.24-10.49,24.84-14.65,29.01-8.72,8.73-38.21,27.86-42.31,27.1"/>
        <path class="cls-20" d="M336.8,4.32c20.83,37.39-100.89,152.39-106.37,173.1-8.65,32.7-134.2,117-127.85,136.73,6.43,19.99,68.88,69.78,84.52,98.23,4.24,7.71,23.35,43.91,23.05,54.05-.18,6.01-10.77,24.93-14.79,28.94-8.39,8.4-37.92,28.53-41.87,27.79"/>
        <path class="cls-33" d="M348.26,4.48c20.03,35.96-106.66,153.36-111.93,173.27-8.32,31.44-136.9,118.05-130.8,137.03,6.18,19.22,68.87,71.41,83.91,98.77,4.08,7.41,23.64,44.16,23.35,53.91-.17,5.78-11.06,25.02-14.92,28.88-8.07,8.08-37.64,29.19-41.44,28.48"/>
        <path class="cls-13" d="M359.72,4.65c19.23,34.52-112.44,154.32-117.5,173.44-7.99,30.18-139.6,119.11-133.74,137.33,5.93,18.45,68.87,73.05,83.31,99.31,3.91,7.12,23.93,44.41,23.65,53.77-.16,5.54-11.34,25.11-15.05,28.82-7.75,7.76-37.35,29.85-41,29.17"/>
        <path class="cls-17" d="M371.19,4.81c18.43,33.08-118.22,155.29-123.07,173.61-7.65,28.93-142.29,120.17-136.68,137.63,5.68,17.68,68.86,74.69,82.7,99.85,3.75,6.82,24.22,44.66,23.95,53.63-.16,5.31-11.63,25.2-15.18,28.75-7.42,7.43-37.07,30.51-40.56,29.86"/>
        <path class="cls-15" d="M382.65,4.97c17.63,31.64-123.99,156.26-128.63,173.79-7.32,27.67-144.99,121.23-139.62,137.93,5.44,16.91,68.86,76.32,82.09,100.4,3.59,6.52,24.51,44.91,24.25,53.49-.15,5.08-11.91,25.29-15.31,28.69-7.1,7.11-36.78,31.17-40.12,30.55"/>
        <path class="cls-43" d="M394.12,5.14c16.83,30.2-129.77,157.23-134.2,173.96-6.99,26.41-147.69,122.29-142.57,138.23,5.19,16.14,68.85,77.96,81.49,100.94,3.42,6.23,24.79,45.16,24.56,53.35-.14,4.85-12.2,25.38-15.44,28.63-6.78,6.79-36.5,31.84-39.69,31.24"/>
        <path class="cls-44" d="M405.58,5.3c16.03,28.77-135.55,158.19-139.76,174.13-6.66,25.15-150.39,123.35-145.51,138.53,4.94,15.37,68.85,79.6,80.88,101.48,3.26,5.93,25.08,45.41,24.86,53.21-.14,4.62-12.49,25.47-15.57,28.56-6.46,6.46-36.21,32.5-39.25,31.93"/>
        <path class="cls-49" d="M417.05,5.46c15.23,27.33-141.32,159.16-145.33,174.3-6.32,23.9-153.09,124.41-148.45,138.83,4.7,14.6,68.84,81.23,80.27,102.02,3.1,5.63,25.37,45.66,25.16,53.08-.13,4.39-12.77,25.56-15.7,28.5-6.13,6.14-35.92,33.16-38.81,32.62"/>
        <path class="cls-42" d="M428.51,5.63c14.42,25.89-147.1,160.13-150.89,174.47-5.99,22.64-155.79,125.46-151.4,139.13,4.45,13.84,68.84,82.87,79.67,102.57,2.94,5.34,25.66,45.91,25.46,52.94-.12,4.16-13.06,25.65-15.83,28.44-5.81,5.82-35.64,33.82-38.37,33.31"/>
        <path class="cls-45" d="M439.97,5.79c13.62,24.45-152.87,161.1-156.46,174.64-5.66,21.38-158.49,126.52-154.34,139.43,4.2,13.07,68.83,84.51,79.06,103.11,2.77,5.04,25.95,46.16,25.76,52.8-.11,3.93-13.34,25.75-15.97,28.37-5.49,5.49-35.35,34.48-37.93,34"/>
        <path class="cls-9" d="M451.44,5.95c12.82,23.01-158.65,162.06-162.02,174.81-5.32,20.12-161.19,127.58-157.28,139.73,3.95,12.3,68.83,86.14,78.45,103.65,2.61,4.75,26.24,46.41,26.06,52.66-.11,3.7-13.63,25.84-16.1,28.31-5.16,5.17-35.07,35.14-37.5,34.69"/>
        <path class="cls-8" d="M462.9,6.12c12.02,21.57-164.43,163.03-167.59,174.98-4.99,18.87-163.88,128.64-160.22,140.03,3.71,11.53,68.82,87.78,77.85,104.19,2.45,4.45,26.53,46.66,26.36,52.52-.1,3.47-13.91,25.93-16.23,28.25-4.84,4.85-34.78,35.81-37.06,35.38"/>
        <path class="cls-41" d="M474.37,6.28c11.22,20.14-170.2,164-173.15,175.15-4.66,17.61-166.58,129.7-163.17,140.33,3.46,10.76,68.82,89.42,77.24,104.74,2.28,4.15,26.82,46.91,26.66,52.38-.09,3.23-14.2,26.02-16.36,28.18-4.52,4.52-34.49,36.47-36.62,36.07"/>
        <path class="cls-46" d="M485.83,6.44c10.42,18.7-175.98,164.97-178.72,175.32-4.33,16.35-169.28,130.76-166.11,140.63,3.21,9.99,68.81,91.05,76.63,105.28,2.12,3.86,27.1,47.16,26.96,52.24-.09,3-14.48,26.11-16.49,28.12-4.2,4.2-34.21,37.13-36.18,36.76"/>
        <path class="cls-12" d="M497.29,6.6c9.62,17.26-181.76,165.94-184.29,175.49-3.99,15.09-171.98,131.82-169.05,140.92,2.97,9.22,68.81,92.69,76.03,105.82,1.96,3.56,27.39,47.42,27.26,52.1-.08,2.77-14.77,26.2-16.62,28.06-3.87,3.88-33.92,37.79-35.75,37.45"/>
        <path class="cls-25" d="M508.76,6.77c8.81,15.82-187.53,166.9-189.85,175.67-3.66,13.83-174.68,132.88-172,141.22,2.72,8.46,68.8,94.33,75.42,106.36,1.79,3.26,27.68,47.67,27.56,51.96-.07,2.54-15.06,26.29-16.75,27.99-3.55,3.56-33.64,38.45-35.31,38.14"/>
        <path class="cls-52" d="M520.22,6.93c8.01,14.38-193.31,167.87-195.42,175.84-3.33,12.58-177.38,133.93-174.94,141.52,2.47,7.69,68.8,95.96,74.81,106.91,1.63,2.97,27.97,47.92,27.86,51.82-.07,2.31-15.34,26.38-16.88,27.93-3.23,3.23-33.35,39.12-34.87,38.83"/>
        <path class="cls-26" d="M531.69,7.09c7.21,12.94-199.08,168.84-200.98,176.01-2.99,11.32-180.08,134.99-177.88,141.82,2.22,6.92,68.79,97.6,74.2,107.45,1.47,2.67,28.26,48.17,28.16,51.68-.06,2.08-15.63,26.47-17.02,27.86-2.91,2.91-33.06,39.78-34.43,39.52"/>
        <path class="cls-47" d="M543.15,7.26c6.41,11.51-204.86,169.81-206.55,176.18-2.66,10.06-182.78,136.05-180.82,142.12,1.98,6.15,68.78,99.24,73.6,107.99,1.3,2.37,28.55,48.42,28.46,51.54-.05,1.85-15.91,26.56-17.15,27.8-2.58,2.59-32.78,40.44-33.99,40.21"/>
        <path class="cls-24" d="M554.61,7.42c5.61,10.07-210.64,170.77-212.11,176.35-2.33,8.8-185.48,137.11-183.77,142.42,1.73,5.38,68.78,100.87,72.99,108.53,1.14,2.08,28.84,48.67,28.76,51.4-.05,1.62-16.2,26.66-17.28,27.74-2.26,2.26-32.49,41.1-33.56,40.9"/>
        <path class="cls-48" d="M566.08,7.58c4.81,8.63-216.41,171.74-217.68,176.52-2,7.55-188.17,138.17-186.71,142.72,1.48,4.61,68.77,102.51,72.38,109.08,.98,1.78,29.13,48.92,29.06,51.26-.04,1.39-16.48,26.75-17.41,27.67-1.94,1.94-32.21,41.76-33.12,41.59"/>
        <path class="cls-40" d="M577.54,7.75c4.01,7.19-222.19,172.71-223.24,176.69-1.66,6.29-190.87,139.23-189.65,143.02,1.24,3.84,68.77,104.15,71.78,109.62,.82,1.48,29.41,49.17,29.36,51.12-.03,1.16-16.77,26.84-17.54,27.61-1.61,1.62-31.92,42.42-32.68,42.28"/>
        <path class="cls-50" d="M589.01,7.91c3.21,5.75-227.97,173.68-228.81,176.86-1.33,5.03-193.57,140.29-192.6,143.32,.99,3.07,68.76,105.78,71.17,110.16,.65,1.19,29.7,49.42,29.66,50.98-.03,.92-17.05,26.93-17.67,27.55-1.29,1.29-31.64,43.09-32.24,42.97"/>
        <path class="cls-51" d="M600.47,8.07c2.4,4.31-233.74,174.64-234.37,177.03-1,3.77-196.27,141.34-195.54,143.62,.74,2.31,68.76,107.42,70.56,110.7,.49,.89,29.99,49.67,29.96,50.84-.02,.69-17.34,27.02-17.8,27.48-.97,.97-31.35,43.75-31.81,43.66"/>
        <path class="cls-53" d="M611.94,8.24c1.6,2.88-239.52,175.61-239.94,177.2-.67,2.52-198.97,142.4-198.48,143.92,.49,1.54,68.75,109.06,69.96,111.25,.33,.59,30.28,49.92,30.26,50.7-.01,.46-17.63,27.11-17.93,27.42-.65,.65-31.06,44.41-31.37,44.35"/>
        <path class="cls-22" d="M623.4,8.4c.8,1.44-245.29,176.58-245.51,177.38-.33,1.26-201.67,143.46-201.42,144.22,.25,.77,68.75,110.69,69.35,111.79,.16,.3,30.57,50.17,30.56,50.56,0,.23-17.91,27.2-18.07,27.36-.32,.32-30.78,45.07-30.93,45.04"/>
        <polyline class="cls-23" points="634.86 8.56 179.42 330.63 279.03 493.38 230.34 566.41"/>
      </g>
    </g>
  </g>
</svg>