<?xml version="1.0" encoding="UTF-8"?>
<svg id="Layer_1" data-name="Layer 1" xmlns="http://www.w3.org/2000/svg" xmlns:xlink="http://www.w3.org/1999/xlink" viewBox="0 0 605.49 471.82">
  <defs>
    <style>
      .cls-1, .cls-2, .cls-3, .cls-4, .cls-5, .cls-6, .cls-7, .cls-8, .cls-9, .cls-10, .cls-11, .cls-12, .cls-13, .cls-14, .cls-15, .cls-16, .cls-17, .cls-18, .cls-19, .cls-20, .cls-21, .cls-22, .cls-23, .cls-24, .cls-25, .cls-26, .cls-27, .cls-28, .cls-29, .cls-30, .cls-31, .cls-32, .cls-33, .cls-34, .cls-35, .cls-36, .cls-37, .cls-38, .cls-39, .cls-40, .cls-41, .cls-42, .cls-43, .cls-44, .cls-45, .cls-46, .cls-47, .cls-48, .cls-49, .cls-50, .cls-51, .cls-52, .cls-53 {
        fill: none;
      }

      .cls-54 {
        fill: url(#linear-gradient);
      }

      .cls-55 {
        clip-path: url(#clippath);
      }

      .cls-2 {
        stroke: #3360a7;
      }

      .cls-2, .cls-3, .cls-4 {
        stroke-miterlimit: 10;
      }

      .cls-3 {
        stroke: #2a61aa;
      }

      .cls-4 {
        stroke: #3b60a5;
      }

      .cls-5 {
        stroke: #1e61ae;
      }

      .cls-5, .cls-6, .cls-7, .cls-8, .cls-9, .cls-10, .cls-11, .cls-12, .cls-13, .cls-14, .cls-15, .cls-16, .cls-17, .cls-18, .cls-19, .cls-20, .cls-21, .cls-22, .cls-23, .cls-24, .cls-25, .cls-26, .cls-27, .cls-28, .cls-29, .cls-30, .cls-31, .cls-32, .cls-33, .cls-34, .cls-35, .cls-36, .cls-37, .cls-39, .cls-40, .cls-41, .cls-42, .cls-43, .cls-44, .cls-45, .cls-46, .cls-47, .cls-48, .cls-49, .cls-50, .cls-51, .cls-52, .cls-53 {
        stroke-miterlimit: 10;
      }

      .cls-6 {
        stroke: #415fa2;
      }

      .cls-7 {
        stroke: #8e5576;
      }

      .cls-8 {
        stroke: #bb4755;
      }

      .cls-9 {
        stroke: #b84957;
      }

      .cls-10 {
        stroke: #915474;
      }

      .cls-11 {
        stroke: #655c91;
      }

      .cls-12 {
        stroke: #c4434d;
      }

      .cls-13 {
        stroke: #9e516a;
      }

      .cls-14 {
        stroke: #945471;
      }

      .cls-15 {
        stroke: #a44f66;
      }

      .cls-16 {
        stroke: #87577b;
      }

      .cls-17 {
        stroke: #a15068;
      }

      .cls-18 {
        stroke: #6a5c8f;
      }

      .cls-19 {
        stroke: #805880;
      }

      .cls-20 {
        stroke: #98536f;
      }

      .cls-21 {
        stroke: #7d5982;
      }

      .cls-22 {
        stroke: #e52f2f;
      }

      .cls-23 {
        stroke: #e82c2c;
      }

      .cls-24 {
        stroke: #d33b3f;
      }

      .cls-25 {
        stroke: #c7424a;
      }

      .cls-26 {
        stroke: #cd3f45;
      }

      .cls-27 {
        stroke: #725b8a;
      }

      .cls-28 {
        stroke: #585e98;
      }

      .cls-29 {
        stroke: #84577e;
      }

      .cls-30 {
        stroke: #5c5d96;
      }

      .cls-31 {
        stroke: #485fa0;
      }

      .cls-32 {
        stroke: #8a5679;
      }

      .cls-33 {
        stroke: #9b526d;
      }

      .cls-34 {
        stroke: #535e9b;
      }

      .cls-35 {
        stroke: #795985;
      }

      .cls-36 {
        stroke: #6e5b8c;
      }

      .cls-37 {
        stroke: #755a87;
      }

      .cls-38 {
        stroke: #4d5f9d;
        stroke-miterlimit: 10;
      }

      .cls-39 {
        stroke: #615d93;
      }

      .cls-40 {
        stroke: #d9383a;
      }

      .cls-41 {
        stroke: #be4652;
      }

      .cls-42 {
        stroke: #b14b5c;
      }

      .cls-43 {
        stroke: #a84e63;
      }

      .cls-44 {
        stroke: #ab4d61;
      }

      .cls-45 {
        stroke: #b44a5a;
      }

      .cls-46 {
        stroke: #c14550;
      }

      .cls-47 {
        stroke: #d03d42;
      }

      .cls-48 {
        stroke: #d63a3d;
      }

      .cls-49 {
        stroke: #ae4c5f;
      }

      .cls-50 {
        stroke: #dc3537;
      }

      .cls-51 {
        stroke: #df3334;
      }

      .cls-52 {
        stroke: #ca4048;
      }

      .cls-53 {
        stroke: #e23131;
      }

      .cls-56 {
        opacity: .5;
      }
    </style>
    <clipPath id="clippath">
      <rect class="cls-1" y="3.62" width="605.49" height="467.69"/>
    </clipPath>
    <linearGradient id="linear-gradient" x1="1606.67" y1="-1674.64" x2="1967.89" y2="-1565.98" gradientTransform="translate(1244.59 2435.56) rotate(-73.7)" gradientUnits="userSpaceOnUse">
      <stop offset=".02" stop-color="#049a8d"/>
      <stop offset="1" stop-color="#2570b8" stop-opacity="0"/>
    </linearGradient>
  </defs>
  <g class="cls-56">
    <g class="cls-55">
      <path class="cls-54" d="M30.37,218.38s-48.01-7.83-11.44-65.48c36.57-57.65,17.25-71.42,89.3-27.05,72.05,44.37-9.87-67.93,94.54-63.8,104.42,4.13,37.82,144.51,94.53,147.11,56.71,2.6,101.65,212.83,26.34,204.79-75.31-8.04-104.9-90.79-106.03-7.24-1.44,106.4-78.03-48.53-139.66-89.85-61.63-41.32-25.91-84.09-47.59-98.49Z"/>
      <g>
        <path class="cls-5" d="M153.48,1.47c-50.74,34.55-59.77,115.05-70.52,155.67-16.97,64.14-66.73,90.53-54.28,129.24,12.6,39.2,69.01,28.86,99.69,84.66,13.24,24.08,25.21,66.88,4.05,88.07-16.46,16.48-45.07,11.98-52.82,10.53"/>
        <path class="cls-3" d="M157.69,1.45c-35.4,24.1-46.83,73.58-56.16,112.99-3.78,15.97-7.92,31.36-10.96,42.84-16.64,62.89-69.45,90.86-57.25,128.81,12.36,38.43,69.23,30.14,99.31,84.85,12.98,23.61,25.82,66.86,5.07,87.64-16.14,16.16-43.53,12.52-51.13,11.09"/>
        <path class="cls-2" d="M161.91,1.43c-34.69,23.62-42.57,74.72-51.71,113.34-3.7,15.65-9.02,31.39-12,42.65-16.31,61.63-72.17,91.19-60.21,128.38,12.11,37.67,69.45,31.43,98.93,85.05,12.72,23.14,26.42,66.84,6.09,87.21-15.82,15.84-41.99,13.05-49.44,11.66"/>
        <path class="cls-4" d="M166.12,1.41c-33.99,23.14-38.31,75.86-47.26,113.69-3.63,15.33-10.13,31.42-13.05,42.45-15.97,60.37-74.89,91.52-63.18,127.96,11.86,36.9,69.67,32.72,98.55,85.24,12.46,22.66,27.03,66.83,7.11,86.77-15.49,15.51-40.45,13.59-47.74,12.22"/>
        <path class="cls-6" d="M170.33,1.39c-33.28,22.66-34.05,77-42.81,114.05-3.55,15.01-11.24,31.46-14.09,42.25-15.64,59.11-77.62,91.86-66.15,127.53,11.62,36.13,69.89,34,98.17,85.43,12.2,22.19,27.63,66.81,8.13,86.34-15.17,15.19-38.91,14.13-46.05,12.79"/>
        <path class="cls-31" d="M174.55,1.37c-32.57,22.17-29.78,78.14-38.37,114.4-3.48,14.69-12.34,31.49-15.14,42.06-15.31,57.85-80.34,92.19-69.11,127.1,11.37,35.36,70.11,35.29,97.79,85.62,11.94,21.72,28.24,66.79,9.15,85.91-14.85,14.87-37.37,14.67-44.36,13.36"/>
        <path class="cls-38" d="M178.76,1.35c-31.86,21.69-25.52,79.29-33.92,114.75-3.4,14.37-13.45,31.52-16.19,41.86-14.97,56.6-83.06,92.52-72.08,126.68,11.12,34.59,70.33,36.58,97.41,85.81,11.68,21.25,28.84,66.77,10.17,85.47-14.53,14.54-35.83,15.2-42.67,13.92"/>
        <path class="cls-34" d="M182.97,1.32c-31.15,21.21-21.26,80.43-29.47,115.11-3.33,14.05-14.56,31.56-17.23,41.67-14.64,55.34-85.79,92.85-75.05,126.25,10.87,33.82,70.55,37.86,97.03,86,11.42,20.77,29.45,66.76,11.19,85.04-14.2,14.22-34.29,15.74-40.98,14.49"/>
        <path class="cls-28" d="M187.18,1.3c-30.45,20.73-17,81.57-25.02,115.46-3.25,13.73-15.66,31.59-18.28,41.47-14.31,54.08-88.51,93.18-78.02,125.82,10.63,33.05,70.77,39.15,96.65,86.2,11.16,20.3,30.05,66.74,12.21,84.61-13.88,13.9-32.75,16.28-39.29,15.05"/>
        <path class="cls-30" d="M191.4,1.28c-29.74,20.25-12.74,82.71-20.57,115.81-3.17,13.41-16.77,31.63-19.32,41.27-13.98,52.82-91.23,93.51-80.98,125.39,10.38,32.28,71,40.43,96.26,86.39,10.9,19.83,30.66,66.72,13.23,84.17-13.56,13.57-31.21,16.81-37.59,15.62"/>
        <path class="cls-39" d="M195.61,1.26c-29.03,19.76-8.48,83.85-16.12,116.16-3.1,13.1-17.88,31.66-20.37,41.08-13.64,51.57-93.95,93.85-83.95,124.97,10.13,31.52,71.22,41.72,95.88,86.58,10.64,19.36,31.26,66.7,14.25,83.74-13.24,13.25-29.67,17.35-35.9,16.18"/>
        <path class="cls-11" d="M199.82,1.24c-28.32,19.28-4.21,84.99-11.67,116.52-3.02,12.78-18.98,31.69-21.41,40.88-13.31,50.31-96.68,94.18-86.92,124.54,9.89,30.75,71.44,43.01,95.5,86.77,10.38,18.89,31.87,66.69,15.27,83.31-12.91,12.93-28.13,17.89-34.21,16.75"/>
        <path class="cls-18" d="M204.03,1.22c-27.61,18.8,.05,86.13-7.23,116.87-2.95,12.46-20.09,31.73-22.46,40.69-12.98,49.05-99.4,94.51-89.88,124.11,9.64,29.98,71.66,44.29,95.12,86.96,10.13,18.41,32.47,66.67,16.29,82.88-12.59,12.6-26.59,18.42-32.52,17.31"/>
        <path class="cls-36" d="M208.25,1.2c-26.91,18.32,4.31,87.27-2.78,117.22-2.87,12.14-21.19,31.76-23.5,40.49-12.65,47.79-102.12,94.84-92.85,123.68,9.39,29.21,71.88,45.58,94.74,87.16,9.87,17.94,33.08,66.65,17.31,82.44-12.27,12.28-25.06,18.96-30.83,17.88"/>
        <path class="cls-27" d="M212.46,1.18c-26.2,17.84,8.57,88.41,1.67,117.58-2.8,11.82-22.3,31.8-24.55,40.3-12.31,46.53-104.85,95.17-95.82,123.26,9.14,28.44,72.1,46.86,94.36,87.35,9.61,17.47,33.68,66.63,18.33,82.01-11.94,11.96-23.52,19.5-29.14,18.44"/>
        <path class="cls-37" d="M216.67,1.16c-25.49,17.35,12.83,89.56,6.12,117.93-2.72,11.5-23.41,31.83-25.6,40.1-11.98,45.28-107.57,95.5-98.78,122.83,8.9,27.67,72.32,48.15,93.98,87.54,9.35,17,34.29,66.62,19.35,81.58-11.62,11.64-21.98,20.04-27.44,19.01"/>
        <path class="cls-35" d="M220.88,1.13c-24.78,16.87,17.1,90.7,10.57,118.28-2.65,11.18-24.51,31.86-26.64,39.9-11.65,44.02-110.29,95.83-101.75,122.4,8.65,26.9,72.54,49.44,93.6,87.73,9.09,16.53,34.89,66.6,20.37,81.14-11.3,11.31-20.44,20.57-25.75,19.58"/>
        <path class="cls-21" d="M225.1,1.11c-24.07,16.39,21.36,91.84,15.02,118.64-2.57,10.86-25.62,31.9-27.69,39.71-11.31,42.76-113.01,96.17-104.72,121.97,8.4,26.14,72.76,50.72,93.22,87.92,8.83,16.05,35.5,66.58,21.39,80.71-10.98,10.99-18.9,21.11-24.06,20.14"/>
        <path class="cls-19" d="M229.31,1.09c-23.36,15.91,25.62,92.98,19.46,118.99-2.49,10.54-26.73,31.93-28.73,39.51-10.98,41.5-115.74,96.5-107.68,121.55,8.16,25.37,72.98,52.01,92.83,88.11,8.57,15.58,36.11,66.56,22.41,80.28-10.65,10.67-17.36,21.65-22.37,20.71"/>
        <path class="cls-29" d="M233.52,1.07c-22.66,15.43,29.88,94.12,23.91,119.34-2.42,10.22-27.83,31.96-29.78,39.32-10.65,40.25-118.46,96.83-110.65,121.12,7.91,24.6,73.2,53.29,92.45,88.31,8.31,15.11,36.71,66.55,23.43,79.84-10.33,10.34-15.82,22.18-20.68,21.27"/>
        <path class="cls-16" d="M237.74,1.05c-21.95,14.94,34.14,95.26,28.36,119.69-2.34,9.9-28.94,32-30.82,39.12-10.32,38.99-121.18,97.16-113.62,120.69,7.66,23.83,73.42,54.58,92.07,88.5,8.05,14.64,37.32,66.53,24.45,79.41-10.01,10.02-14.28,22.72-18.99,21.84"/>
        <path class="cls-32" d="M241.95,1.03c-21.24,14.46,38.41,96.4,32.81,120.05-2.27,9.58-30.05,32.03-31.87,38.92-9.98,37.73-123.91,97.49-116.58,120.26,7.41,23.06,73.64,55.87,91.69,88.69,7.79,14.16,37.92,66.51,25.47,78.98-9.68,9.7-12.74,23.26-17.29,22.4"/>
        <path class="cls-7" d="M246.16,1.01c-20.53,13.98,42.67,97.54,37.26,120.4-2.19,9.26-31.15,32.07-32.92,38.73-9.65,36.47-126.63,97.82-119.55,119.84,7.17,22.29,73.86,57.15,91.31,88.88,7.53,13.69,38.53,66.49,26.49,78.54-9.36,9.37-11.2,23.79-15.6,22.97"/>
        <path class="cls-10" d="M250.37,.99c-19.82,13.5,46.93,98.68,41.71,120.75-2.12,8.94-32.26,32.1-33.96,38.53-9.32,35.22-129.35,98.16-122.52,119.41,6.92,21.52,74.08,58.44,90.93,89.07,7.27,13.22,39.13,66.48,27.51,78.11-9.04,9.05-9.66,24.33-13.91,23.53"/>
        <path class="cls-14" d="M254.59,.96c-19.12,13.02,51.19,99.83,46.16,121.11-2.04,8.62-33.37,32.13-35.01,38.34-8.98,33.96-132.07,98.49-125.49,118.98,6.67,20.75,74.3,59.72,90.55,89.27,7.01,12.75,39.74,66.46,28.53,77.68-8.72,8.73-8.12,24.87-12.22,24.1"/>
        <path class="cls-20" d="M258.8,.94c-18.41,12.53,55.45,100.97,50.6,121.46-1.97,8.3-34.47,32.17-36.05,38.14-8.65,32.7-134.8,98.82-128.45,118.55,6.43,19.99,74.52,61.01,90.17,89.46,6.75,12.28,40.34,66.44,29.55,77.25-8.39,8.4-6.58,25.41-10.53,24.67"/>
        <path class="cls-33" d="M263.01,.92c-17.7,12.05,59.72,102.11,55.05,121.81-1.89,7.99-35.58,32.2-37.1,37.94-8.32,31.44-137.52,99.15-131.42,118.13,6.18,19.22,74.75,62.3,89.79,89.65,6.49,11.8,40.95,66.42,30.57,76.81-8.07,8.08-5.04,25.94-8.84,25.23"/>
        <path class="cls-13" d="M267.22,.9c-16.99,11.57,63.98,103.25,59.5,122.16-1.81,7.67-36.68,32.24-38.14,37.75-7.99,30.18-140.24,99.48-134.39,117.7,5.93,18.45,74.97,63.58,89.4,89.84,6.23,11.33,41.55,66.41,31.59,76.38-7.75,7.76-3.5,26.48-7.15,25.8"/>
        <path class="cls-17" d="M271.44,.88c-16.28,11.09,68.24,104.39,63.95,122.52-1.74,7.35-37.79,32.27-39.19,37.55-7.65,28.93-142.97,99.81-137.35,117.27,5.68,17.68,75.19,64.87,89.02,90.03,5.97,10.86,42.16,66.39,32.61,75.95-7.42,7.43-1.96,27.02-5.45,26.36"/>
        <path class="cls-15" d="M275.65,.86c-15.58,10.61,72.5,105.53,68.4,122.87-1.66,7.03-38.9,32.3-40.23,37.36-7.32,27.67-145.69,100.15-140.32,116.84,5.44,16.91,75.41,66.15,88.64,90.23,5.71,10.39,42.76,66.37,33.63,75.51-7.1,7.11-.42,27.55-3.76,26.93"/>
        <path class="cls-43" d="M279.86,.84c-14.87,10.12,76.76,106.67,72.85,123.22-1.59,6.71-40,32.34-41.28,37.16-6.99,26.41-148.41,100.48-143.29,116.42,5.19,16.14,75.63,67.44,88.26,90.42,5.45,9.92,43.37,66.35,34.65,75.08-6.78,6.79,1.12,28.09-2.07,27.49"/>
        <path class="cls-44" d="M284.07,.82c-14.16,9.64,81.03,107.81,77.29,123.58-1.51,6.39-41.11,32.37-42.33,36.97-6.66,25.15-151.13,100.81-146.25,115.99,4.94,15.37,75.85,68.73,87.88,90.61,5.19,9.44,43.97,66.34,35.67,74.65-6.46,6.46,2.66,28.63-.38,28.06"/>
        <path class="cls-49" d="M288.29,.8c-13.45,9.16,85.29,108.95,81.74,123.93-1.44,6.07-42.22,32.4-43.37,36.77-6.32,23.9-153.86,101.14-149.22,115.56,4.7,14.6,76.07,70.01,87.5,90.8,4.93,8.97,44.58,66.32,36.69,74.21-6.13,6.14,4.2,29.16,1.31,28.62"/>
        <path class="cls-42" d="M292.5,.77c-12.74,8.68,89.55,110.1,86.19,124.28-1.36,5.75-43.32,32.44-44.42,36.57-5.99,22.64-156.58,101.47-152.19,115.13,4.45,13.84,76.29,71.3,87.12,90.99,4.67,8.5,45.18,66.3,37.71,73.78-5.81,5.82,5.74,29.7,3,29.19"/>
        <path class="cls-45" d="M296.71,.75c-12.04,8.2,93.81,111.24,90.64,124.64-1.29,5.43-44.43,32.47-45.46,36.38-5.66,21.38-159.3,101.8-155.15,114.71,4.2,13.07,76.51,72.58,86.74,91.18,4.41,8.03,45.79,66.28,38.73,73.35-5.49,5.49,7.28,30.24,4.7,29.75"/>
        <path class="cls-9" d="M300.93,.73c-11.33,7.71,98.07,112.38,95.09,124.99-1.21,5.11-45.54,32.51-46.51,36.18-5.32,20.12-162.03,102.13-158.12,114.28,3.95,12.3,76.73,73.87,86.36,91.38,4.15,7.55,46.39,66.27,39.75,72.92-5.16,5.17,8.82,30.78,6.39,30.32"/>
        <path class="cls-8" d="M305.14,.71c-10.62,7.23,102.33,113.52,99.54,125.34-1.13,4.79-46.64,32.54-47.55,35.99-4.99,18.87-164.75,102.47-161.09,113.85,3.71,11.53,76.95,75.16,85.98,91.57,3.89,7.08,47,66.25,40.77,72.48-4.84,4.85,10.36,31.31,8.08,30.89"/>
        <path class="cls-41" d="M309.35,.69c-9.91,6.75,106.6,114.66,103.99,125.69-1.06,4.47-47.75,32.57-48.6,35.79-4.66,17.61-167.47,102.8-164.05,113.42,3.46,10.76,77.17,76.44,85.59,91.76,3.63,6.61,47.6,66.23,41.79,72.05-4.52,4.52,11.9,31.85,9.77,31.45"/>
        <path class="cls-46" d="M313.56,.67c-9.2,6.27,110.86,115.8,108.43,126.05-.98,4.15-48.85,32.61-49.64,35.59-4.33,16.35-170.19,103.13-167.02,113,3.21,9.99,77.39,77.73,85.21,91.95,3.38,6.14,48.21,66.21,42.81,71.62-4.2,4.2,13.44,32.39,11.46,32.02"/>
        <path class="cls-12" d="M317.78,.65c-8.5,5.78,115.12,116.94,112.88,126.4-.91,3.83-49.96,32.64-50.69,35.4-3.99,15.09-172.92,103.46-169.99,112.57,2.97,9.22,77.61,79.01,84.83,92.14,3.12,5.67,48.81,66.2,43.83,71.18-3.87,3.88,14.98,32.92,13.15,32.58"/>
        <path class="cls-25" d="M321.99,.63c-7.79,5.3,119.38,118.08,117.33,126.75-.83,3.51-51.07,32.67-51.74,35.2-3.66,13.83-175.64,103.79-172.96,112.14,2.72,8.46,77.83,80.3,84.45,92.34,2.86,5.19,49.42,66.18,44.85,70.75-3.55,3.56,16.52,33.46,14.85,33.15"/>
        <path class="cls-52" d="M326.2,.6c-7.08,4.82,123.64,119.22,121.78,127.11-.76,3.19-52.17,32.71-52.78,35.01-3.33,12.58-178.36,104.12-175.92,111.71,2.47,7.69,78.05,81.59,84.07,92.53,2.6,4.72,50.02,66.16,45.87,70.32-3.23,3.23,18.06,34,16.54,33.71"/>
        <path class="cls-26" d="M330.41,.58c-6.37,4.34,127.91,120.37,126.23,127.46-.68,2.87-53.28,32.74-53.83,34.81-2.99,11.32-181.09,104.46-178.89,111.29,2.22,6.92,78.27,82.87,83.69,92.72,2.34,4.25,50.63,66.14,46.89,69.88-2.91,2.91,19.6,34.53,18.23,34.28"/>
        <path class="cls-47" d="M334.63,.56c-5.66,3.86,132.17,121.51,130.68,127.81-.6,2.56-54.39,32.78-54.87,34.61-2.66,10.06-183.81,104.79-181.86,110.86,1.98,6.15,78.49,84.16,83.31,92.91,2.08,3.78,51.23,66.13,47.91,69.45-2.58,2.59,21.14,35.07,19.92,34.84"/>
        <path class="cls-24" d="M338.84,.54c-4.96,3.37,136.43,122.65,135.12,128.17-.53,2.24-55.49,32.81-55.92,34.42-2.33,8.8-186.53,105.12-184.82,110.43,1.73,5.38,78.72,85.44,82.93,93.1,1.82,3.31,51.84,66.11,48.93,69.02-2.26,2.26,22.68,35.61,21.61,35.41"/>
        <path class="cls-48" d="M343.05,.52c-4.25,2.89,140.69,123.79,139.57,128.52-.45,1.92-56.6,32.84-56.96,34.22-2,7.55-189.25,105.45-187.79,110,1.48,4.61,78.94,86.73,82.55,93.3,1.56,2.83,52.44,66.09,49.95,68.59-1.94,1.94,24.22,36.15,23.3,35.97"/>
        <path class="cls-40" d="M347.27,.5c-3.54,2.41,144.95,124.93,144.02,128.87-.38,1.6-57.71,32.88-58.01,34.03-1.66,6.29-191.98,105.78-190.76,109.58,1.24,3.84,79.16,88.02,82.16,93.49,1.3,2.36,53.05,66.07,50.97,68.15-1.61,1.62,25.76,36.68,25,36.54"/>
        <path class="cls-50" d="M351.48,.48c-2.83,1.93,149.22,126.07,148.47,129.22-.3,1.28-58.81,32.91-59.06,33.83-1.33,5.03-194.7,106.11-193.72,109.15,.99,3.07,79.38,89.3,81.78,93.68,1.04,1.89,53.65,66.06,51.99,67.72-1.29,1.29,27.3,37.22,26.69,37.11"/>
        <path class="cls-51" d="M355.69,.46c-2.12,1.45,153.48,127.21,152.92,129.58-.23,.96-59.92,32.95-60.1,33.63-1,3.77-197.42,106.44-196.69,108.72,.74,2.31,79.6,90.59,81.4,93.87,.78,1.42,54.26,66.04,53.01,67.29-.97,.97,28.83,37.76,28.38,37.67"/>
        <path class="cls-53" d="M359.9,.44c-1.42,.96,157.74,128.35,157.37,129.93-.15,.64-61.02,32.98-61.15,33.44-.67,2.52-200.15,106.78-199.66,108.29,.49,1.54,79.82,91.87,81.02,94.06,.52,.94,54.86,66.02,54.03,66.85-.65,.65,30.37,38.29,30.07,38.24"/>
        <path class="cls-22" d="M364.12,.41c-.71,.48,162,129.49,161.82,130.28-.08,.32-62.13,33.01-62.19,33.24-.33,1.26-202.87,107.11-202.62,107.87,.25,.77,80.04,93.16,80.64,94.25,.26,.47,55.47,66,55.05,66.42-.32,.32,31.91,38.83,31.76,38.8"/>
        <polyline class="cls-23" points="368.33 .39 534.59 131.03 265.76 271.52 435.55 471.32"/>
      </g>
    </g>
  </g>
</svg>